<?xml version="1.0" encoding="UTF-8"?>
<!DOCTYPE svg PUBLIC "-//W3C//DTD SVG 1.1//EN" "http://www.w3.org/Graphics/SVG/1.1/DTD/svg11.dtd">
<svg xmlns="http://www.w3.org/2000/svg" version="1.1" width="153px" height="160px" style="shape-rendering:geometricPrecision; text-rendering:geometricPrecision; image-rendering:optimizeQuality; fill-rule:evenodd; clip-rule:evenodd" xmlns:xlink="http://www.w3.org/1999/xlink">
<g><path style="opacity:1" fill="#fdfdfd" d="M -0.5,-0.5 C 23.1667,-0.5 46.8333,-0.5 70.5,-0.5C 52.2299,10.307 33.8965,21.1404 15.5,32C 58.245,56.121 100.745,80.621 143,105.5C 143.804,100.249 143.637,95.082 142.5,90C 116.831,75.9012 91.6639,61.0679 67,45.5C 64.4135,40.5871 65.2468,36.4204 69.5,33C 72.7024,31.5167 76.0357,31.1834 79.5,32C 100.5,44.1667 121.5,56.3333 142.5,68.5C 143.666,57.8489 143.832,47.1823 143,36.5C 121.524,24.5186 100.358,12.1853 79.5,-0.5C 103.833,-0.5 128.167,-0.5 152.5,-0.5C 152.5,52.8333 152.5,106.167 152.5,159.5C 101.5,159.5 50.5,159.5 -0.5,159.5C -0.5,106.167 -0.5,52.8333 -0.5,-0.5 Z"/></g>
<g><path style="opacity:1" fill="#6fc9b8" d="M 70.5,-0.5 C 73.5,-0.5 76.5,-0.5 79.5,-0.5C 100.358,12.1853 121.524,24.5186 143,36.5C 143.832,47.1823 143.666,57.8489 142.5,68.5C 121.5,56.3333 100.5,44.1667 79.5,32C 76.0357,31.1834 72.7024,31.5167 69.5,33C 65.2468,36.4204 64.4135,40.5871 67,45.5C 91.6639,61.0679 116.831,75.9012 142.5,90C 143.637,95.082 143.804,100.249 143,105.5C 100.745,80.621 58.245,56.121 15.5,32C 33.8965,21.1404 52.2299,10.307 70.5,-0.5 Z"/></g>
<g><path style="opacity:1" fill="#13204b" d="M 6.5,48.5 C 49.133,72.4831 91.4664,96.9831 133.5,122C 114.228,133.553 94.7284,144.72 75,155.5C 53.1012,143.133 31.2679,130.633 9.5,118C 8.55198,117.517 7.55198,117.351 6.5,117.5C 6.16825,107.81 6.50158,98.1437 7.5,88.5C 28.5,100.667 49.5,112.833 70.5,125C 81.1618,127.336 85.6618,123.169 84,112.5C 82.8333,110.667 81.3333,109.167 79.5,108C 55.3045,94.4056 31.3045,80.5722 7.5,66.5C 6.50408,60.5368 6.17075,54.5368 6.5,48.5 Z"/></g>
</svg>
