<?xml version="1.0" encoding="UTF-8"?>
<!DOCTYPE svg PUBLIC "-//W3C//DTD SVG 1.1//EN" "http://www.w3.org/Graphics/SVG/1.1/DTD/svg11.dtd">
<svg xmlns="http://www.w3.org/2000/svg" version="1.1" width="141px" height="138px" style="shape-rendering:geometricPrecision; text-rendering:geometricPrecision; image-rendering:optimizeQuality; fill-rule:evenodd; clip-rule:evenodd" xmlns:xlink="http://www.w3.org/1999/xlink">
<g><path style="opacity:1" fill="#fcfbfb" d="M -0.5,-0.5 C 46.5,-0.5 93.5,-0.5 140.5,-0.5C 140.5,45.5 140.5,91.5 140.5,137.5C 93.5,137.5 46.5,137.5 -0.5,137.5C -0.5,91.5 -0.5,45.5 -0.5,-0.5 Z"/></g>
<g><path style="opacity:1" fill="#fb951f" d="M 39.5,6.5 C 45.0129,5.18429 50.6796,5.18429 56.5,6.5C 67.0808,25.3304 77.9142,43.9971 89,62.5C 88.3519,68.4729 86.0185,73.8063 82,78.5C 67.9699,54.3303 53.8033,30.3303 39.5,6.5 Z"/></g>
<g><path style="opacity:1" fill="#334090" d="M 61.5,6.5 C 76.3386,5.17379 91.3386,5.17379 106.5,6.5C 117.333,25.5 128.167,44.5 139,63.5C 139.52,65.2889 139.187,66.9556 138,68.5C 127.667,86.1667 117.333,103.833 107,121.5C 103.302,115.966 99.8018,110.299 96.5,104.5C 102.747,93.0036 109.247,81.6703 116,70.5C 117.885,68.0859 118.552,65.4192 118,62.5C 110.5,49.6667 103,36.8333 95.5,24C 87.4793,23.8316 79.4793,23.3316 71.5,22.5C 68.1417,17.1025 64.8084,11.7692 61.5,6.5 Z"/></g>
<g><path style="opacity:1" fill="#fb951f" d="M 34.5,7.5 C 38.6431,13.1024 42.3098,19.1024 45.5,25.5C 38.6667,37.1667 31.8333,48.8333 25,60.5C 23.6986,62.3646 23.3653,64.3646 24,66.5C 31.5,79.5 39,92.5 46.5,105.5C 54.4793,106.332 62.4793,106.832 70.5,107C 73.7077,112.583 77.041,118.083 80.5,123.5C 65.8447,124.666 51.178,124.833 36.5,124C 25.3333,104.833 14.1667,85.6667 3,66.5C 3.08635,63.2975 4.08635,60.2975 6,57.5C 15.7767,40.9413 25.2767,24.2746 34.5,7.5 Z"/></g>
<g><path style="opacity:1" fill="#6772ad" d="M 92.5,28.5 C 86.642,28.1778 80.9753,28.5111 75.5,29.5C 74.9569,29.44 74.6236,29.1067 74.5,28.5C 80.6544,27.1834 86.6544,27.1834 92.5,28.5 Z"/></g>
<g><path style="opacity:1" fill="#323f90" d="M 92.5,28.5 C 99.9619,40.3673 106.962,52.534 113.5,65C 107.203,76.4343 100.536,87.6009 93.5,98.5C 90.1715,94.0079 87.5049,89.1745 85.5,84C 88.383,77.4447 91.7164,71.1114 95.5,65C 88.7017,53.2364 82.0351,41.403 75.5,29.5C 80.9753,28.5111 86.642,28.1778 92.5,28.5 Z"/></g>
<g><path style="opacity:1" fill="#fb941e" d="M 66.5,100.5 C 61.0247,101.489 55.358,101.822 49.5,101.5C 42.3785,89.4263 35.3785,77.2596 28.5,65C 34.6132,53.2727 41.1132,41.7727 48,30.5C 51.3559,35.2127 54.1892,40.2127 56.5,45.5C 53.3045,52.0574 49.9712,58.5574 46.5,65C 53.2983,76.7636 59.9649,88.597 66.5,100.5 Z"/></g>
<g><path style="opacity:1" fill="#324090" d="M 59.5,51.5 C 73.8206,75.4691 88.154,99.4691 102.5,123.5C 96.8333,124.833 91.1667,124.833 85.5,123.5C 74.9192,104.67 64.0858,86.0029 53,67.5C 52.3333,65.8333 52.3333,64.1667 53,62.5C 55.1782,58.8057 57.3448,55.1391 59.5,51.5 Z"/></g>
<g><path style="opacity:1" fill="#fdd6a8" d="M 66.5,100.5 C 67.0431,100.56 67.3764,100.893 67.5,101.5C 61.3456,102.817 55.3456,102.817 49.5,101.5C 55.358,101.822 61.0247,101.489 66.5,100.5 Z"/></g>
</svg>
